<svg width="389" height="123" viewBox="0 0 389 123" fill="none" xmlns="http://www.w3.org/2000/svg">
<path d="M72.6513 27.9101C54.7769 28.9109 37.8814 30.1875 21.0948 33.7324C17.0562 34.5852 8.36609 35.7126 5.46552 37.6615C4.00677 38.6416 4.46206 41.7496 4.38297 42.6265C4.0545 46.2681 3.6875 49.9119 3.5034 53.5566C2.85354 66.4221 3.7613 79.5008 5.87148 92.3121C6.72609 97.5006 5.7642 103.465 8.91615 108.457C9.38936 109.207 10.5436 111.841 12.0285 112.029C19.8315 113.018 30.1107 112.136 38.0774 112.136C107.406 112.136 176.734 112.136 246.062 112.136C268.763 112.136 291.516 112.381 314.195 111.743C332.131 111.239 350.011 110.208 367.985 110.208C371.818 110.208 384.651 111.354 387.673 109.957C389.969 108.897 379.42 95.7051 378.945 94.5982C370.866 75.7514 368.003 56.2504 364.466 37.0543C362.439 26.0507 362.018 13.8856 355.941 3.19231C353.802 -0.572037 347.454 1.37475 342.748 2.69224C316.214 10.1205 288.344 14.8811 258.918 18.1587C224.752 21.9642 190.391 22.4004 155.669 23.3737C131.499 24.0513 107.871 25.952 83.8151 27.1243C71.812 27.7092 59.7943 27.9101 47.7527 27.9101C37.0484 27.9101 24.912 30.3978 14.5319 31.7678C9.51345 32.4301 1 32.4257 1 35.6612C1 43.8612 2.94466 51.733 5.19488 59.8789C8.22599 70.8518 11.9608 81.9469 11.9608 93.0622C11.9608 100.47 12.5867 107.956 11.6902 115.351C11.4608 117.244 10.4749 119.084 10.743 120.995C11.1192 123.676 55.6208 120.163 58.5105 119.995C77.9056 118.862 97.2476 119.544 116.698 119.066C140.126 118.491 163.517 118.577 186.793 116.851C214.271 114.814 239.963 112.136 267.849 112.136C287.876 112.136 307.903 112.136 327.93 112.136C331.119 112.136 353.998 112.5 354.182 110.065C356.516 79.2606 343.789 48.7056 340.786 18.0516C340.27 12.7891 299.204 20.9478 294.101 21.6235C266.131 25.3266 237.23 28.6475 208.444 29.7675C175.958 31.0315 143.16 30.4819 110.608 30.4819C83.5136 30.4819 55.2779 29.4536 28.605 32.5536" stroke="url(#paint0_linear_150_188)" stroke-width="2" stroke-linecap="round"/>
<defs>
<linearGradient id="paint0_linear_150_188" x1="194.5" y1="1" x2="194.5" y2="122" gradientUnits="userSpaceOnUse">
<stop stop-color="#E6D587"/>
<stop offset="1" stop-color="#CAA14F"/>
</linearGradient>
</defs>
</svg>
