<svg width="184" height="72" viewBox="0 0 184 72" fill="none" xmlns="http://www.w3.org/2000/svg">
<path d="M32.0929 64.6796V58.9363C32.0929 58.3006 32.1002 57.5782 32.1146 56.7691C32.129 55.9744 32.1363 55.5482 32.1363 55.4904C32.0062 55.9383 31.6956 56.928 31.2044 58.4595C30.6698 60.1067 30.1785 61.6021 29.7306 62.9458C29.5572 62.4256 29.3333 61.761 29.0588 60.9519L28.3652 58.9363C28.2352 58.5607 28.1052 58.1778 27.9751 57.7877C27.874 57.4843 27.7729 57.152 27.6717 56.7908C27.4261 56.025 27.2961 55.6132 27.2816 55.5554C27.2816 55.6132 27.2888 56.0394 27.3033 56.8341C27.3177 57.6432 27.325 58.3512 27.325 58.958V64.6796H25.5478V49.5088H26.7832C27.0143 50.2023 27.3033 51.0909 27.6501 52.1745L28.0835 53.5182C28.2569 54.0528 28.3941 54.479 28.4953 54.7969C29.131 56.7619 29.5356 57.9827 29.7089 58.4595C29.7378 58.3584 29.7667 58.2717 29.7956 58.1995C29.8245 58.0839 29.8607 57.9755 29.904 57.8744C29.9907 57.5854 30.0774 57.3037 30.1641 57.0292C30.4097 56.2634 30.6553 55.5265 30.9009 54.8186C31.5656 52.738 32.1507 50.9681 32.6564 49.5088H33.8484V64.6796H32.0929ZM62.0038 63.3359C62.0038 63.856 61.8882 64.21 61.657 64.3978C61.4403 64.5857 61.0718 64.6796 60.5517 64.6796H56.629C55.7476 64.6796 55.3069 64.2317 55.3069 63.3359V50.9608C55.3069 49.9928 55.8054 49.5088 56.8024 49.5088H60.5084C61.5053 49.5088 62.0038 49.9711 62.0038 50.8958V63.3359ZM60.1616 51.0475H57.1491V63.1408H60.1616V51.0475ZM90.1544 63.0325C90.1544 63.6682 90.0244 64.1016 89.7643 64.3328C89.5042 64.564 89.0346 64.6796 88.3556 64.6796H85.3214C84.5701 64.6796 84.0644 64.5712 83.8043 64.3545C83.5732 64.1522 83.4576 63.7404 83.4576 63.1191V51.1992C83.4576 50.5346 83.5732 50.0867 83.8043 49.8555C84.05 49.6244 84.5267 49.5088 85.2347 49.5088H88.2472C88.8974 49.5088 89.3525 49.6171 89.6126 49.8339C89.8582 50.0506 89.981 50.4479 89.981 51.0259V54.06H88.1605V51.0475H85.2997V63.1408H88.3122V59.1531H90.1544V63.0325ZM116.961 64.6796L115.444 61.8621C115.097 61.2264 114.7 60.4606 114.252 59.5648L114.144 59.3048L114.014 59.088C113.927 58.8858 113.855 58.7413 113.797 58.6546C113.653 58.3512 113.537 58.12 113.45 57.9611V64.6796H111.608V49.5088H113.45V55.6421C113.508 55.541 113.595 55.3676 113.71 55.122L113.797 54.9486L113.884 54.7752C113.956 54.6163 114.021 54.479 114.079 54.3634C114.426 53.641 114.765 52.9764 115.097 52.3696L116.636 49.5088H118.63L114.664 56.7257L119.085 64.6796H116.961ZM144.822 51.0475H141.94V55.9455H143.933L144.822 55.1653V51.0475ZM144.952 58.3078L143.955 57.5059H141.94V63.1408H144.952V58.3078ZM145.256 56.5957L145.516 56.7908L145.776 56.9858C145.978 57.1303 146.144 57.2748 146.274 57.4193C146.621 57.766 146.794 58.0983 146.794 58.4162V63.0758C146.794 63.6971 146.679 64.1161 146.447 64.3328C146.202 64.564 145.725 64.6796 145.017 64.6796H140.097V49.5088H144.93C145.581 49.5088 146.028 49.6171 146.274 49.8339C146.534 50.0795 146.664 50.5202 146.664 51.1559V54.9052C146.664 55.0931 146.621 55.2737 146.534 55.4471C146.462 55.5771 146.368 55.6927 146.252 55.7938L145.256 56.5957ZM172.994 64.6796V58.6329H169.96V64.6796H168.14V50.9825C168.14 50.4046 168.255 50.0145 168.486 49.8122C168.718 49.6099 169.151 49.5088 169.787 49.5088H173.103C173.796 49.5088 174.259 49.6099 174.49 49.8122C174.721 50.0145 174.837 50.419 174.837 51.0259V64.6796H172.994ZM172.994 51.0692H169.96V57.0942H172.994V51.0692Z" fill="url(#paint0_linear_108_115)"/>
<path fill-rule="evenodd" clip-rule="evenodd" d="M5.41788 55.9372C5.41788 55.7369 5.55614 55.5653 5.74558 55.5004C7.19407 55.0042 8.23537 53.6307 8.23537 52.014C8.23537 49.9792 6.58584 48.3297 4.55103 48.3297C2.51623 48.3297 0.866699 49.9792 0.866699 52.014C0.866699 53.6307 1.90795 55.0042 3.3564 55.5004C3.54583 55.5653 3.68408 55.7369 3.68408 55.9371V65.451C3.68408 65.6904 3.87814 65.8845 4.11753 65.8845H4.98443C5.22382 65.8845 5.41788 65.6904 5.41788 65.451V55.9372Z" fill="url(#paint1_linear_108_115)"/>
<path d="M17.4033 37.4717C17.4033 38.775 17.1013 39.6968 16.4974 40.2371C15.9252 40.7457 14.8763 41 13.3505 41H1.4783V7.62426H13.3029C14.6061 7.62426 15.5597 7.91034 16.1636 8.48249C16.7994 9.02286 17.1172 9.94467 17.1172 11.2479V19.9733C17.1172 21.1494 16.259 22.3096 14.5425 23.4539C15.655 24.1532 16.402 24.7412 16.7835 25.218C17.1967 25.6948 17.4033 26.3624 17.4033 27.2206V37.4717ZM11.9201 20.0686V11.9154H6.72306V21.4514H10.5851L11.9201 20.0686ZM12.1585 36.7088V27.3159L10.5851 25.7425H6.72306V36.7088H12.1585ZM38.075 37.5194C38.075 38.8544 37.7889 39.7762 37.2168 40.2848C36.6446 40.7616 35.6116 41 34.1176 41H25.6783C24.3751 41 23.4533 40.7457 22.9129 40.2371C22.4043 39.7285 22.15 38.8385 22.15 37.5671V11.3433C22.15 10.04 22.452 9.10233 23.0559 8.53017C23.6599 7.92623 24.6612 7.62426 26.0598 7.62426H34.213C35.6434 7.62426 36.6446 7.89444 37.2168 8.43481C37.7889 8.9434 38.075 9.81752 38.075 11.0572V37.5194ZM32.8303 36.7088V11.9154H27.3948V36.7088H32.8303ZM58.7467 37.5194C58.7467 38.8544 58.4607 39.7762 57.8885 40.2848C57.3164 40.7616 56.2833 41 54.7893 41H46.35C45.0468 41 44.125 40.7457 43.5846 40.2371C43.076 39.7285 42.8218 38.8385 42.8218 37.5671V11.3433C42.8218 10.04 43.1237 9.10233 43.7277 8.53017C44.3316 7.92623 45.3329 7.62426 46.7315 7.62426H54.8847C56.3151 7.62426 57.3164 7.89444 57.8885 8.43481C58.4607 8.9434 58.7467 9.81752 58.7467 11.0572V37.5194ZM53.502 36.7088V11.9154H48.0665V36.7088H53.502ZM77.9881 37.5671C77.9881 38.4571 77.702 39.2517 77.1299 39.951C76.5895 40.6503 75.6041 41 74.1737 41H67.4986C66.2271 41 65.2417 40.698 64.5424 40.0941C63.8431 39.4584 63.4935 38.6319 63.4935 37.6147V28.6033H68.7382V36.7088H72.8864V29.3185L64.4471 20.2117C64.0021 19.7349 63.7319 19.3376 63.6365 19.0197C63.5412 18.7018 63.4935 18.1774 63.4935 17.4463V10.7711C63.4935 9.91288 63.859 9.1818 64.5901 8.57785C65.3212 7.94212 66.3384 7.62426 67.6416 7.62426H74.0307C75.4928 7.62426 76.51 7.92623 77.0822 8.53017C77.6861 9.10233 77.9881 9.96056 77.9881 11.1049V18.4475H72.8387V11.9154H68.7382V17.3986L76.6531 25.9332C77.5431 26.8233 77.9881 27.8563 77.9881 29.0324V37.5671ZM97.3106 11.9154H92.1612V41H86.9165V11.9154H81.8147V7.62426H97.3106V11.9154Z" fill="url(#paint2_linear_108_115)"/>
<path d="M117.037 37.3763C117.037 38.6796 116.719 39.6173 116.083 40.1894C115.448 40.7298 114.446 41 113.08 41H105.212C103.655 41 102.574 40.7457 101.97 40.2371C101.398 39.7285 101.112 38.8385 101.112 37.5671V11.3433C101.112 9.94467 101.398 8.97518 101.97 8.43481C102.542 7.89444 103.56 7.62426 105.022 7.62426H112.507C113.97 7.62426 115.019 7.87855 115.654 8.38713C116.322 8.89572 116.656 9.78574 116.656 11.0572V18.4475H111.458V11.9154H106.357V36.7088H111.792V28.0788H117.037V37.3763ZM137.709 41H132.464V28.1265H126.981V41H121.784V10.9618C121.784 9.69038 122.086 8.81625 122.69 8.33945C123.294 7.86266 124.311 7.62426 125.741 7.62426H133.608C135.166 7.62426 136.231 7.87855 136.803 8.38713C137.407 8.86393 137.709 9.75395 137.709 11.0572V41ZM132.464 23.74V12.1538H126.981V23.74H132.464ZM161.909 41H157.093V23.1201L152.325 37.7578L147.414 23.4062V41H142.455V7.62426H146.222L152.23 25.7902L158.285 7.62426H161.909V41ZM182.591 24.6459C182.591 25.9173 182.273 26.8074 181.637 27.3159C181.033 27.8245 180.032 28.0788 178.633 28.0788H171.911V41H166.666V7.62426H178.633C180.159 7.62426 181.192 7.94212 181.733 8.57785C182.305 9.21358 182.591 10.2307 182.591 11.6293V24.6459ZM177.346 23.74V11.9154H171.911V23.74H177.346Z" fill="white"/>
<defs>
<linearGradient id="paint0_linear_108_115" x1="99.9897" y1="47.6796" x2="99.9897" y2="71.6796" gradientUnits="userSpaceOnUse">
<stop stop-color="#FFF4C0"/>
<stop offset="1" stop-color="#CAA14F"/>
</linearGradient>
<linearGradient id="paint1_linear_108_115" x1="4.55103" y1="48.3297" x2="4.55103" y2="65.8845" gradientUnits="userSpaceOnUse">
<stop stop-color="#FFF4C0"/>
<stop offset="1" stop-color="#CAA14F"/>
</linearGradient>
<linearGradient id="paint2_linear_108_115" x1="92" y1="0" x2="92" y2="53" gradientUnits="userSpaceOnUse">
<stop stop-color="#E6D587"/>
<stop offset="1" stop-color="#CAA14F"/>
</linearGradient>
</defs>
</svg>
