<svg width="632" height="376" viewBox="0 0 632 376" fill="none" xmlns="http://www.w3.org/2000/svg">
<path d="M118.271 84.7319C89.2659 87.8088 61.8488 91.7336 34.6087 102.632C28.055 105.254 13.9532 108.72 9.24637 114.711C6.8792 117.725 7.61803 127.28 7.48968 129.976C6.95665 141.171 6.36111 152.374 6.06236 163.579C5.00781 203.132 6.48086 243.341 9.90514 282.728C11.2919 298.68 9.73105 317.017 14.8458 332.364C15.6137 334.669 17.4867 342.768 19.8963 343.346C32.5586 346.386 49.2391 343.675 62.1669 343.675C174.669 343.675 287.17 343.675 399.672 343.675C436.509 343.675 473.432 344.428 510.234 342.467C539.339 340.917 568.353 337.745 597.52 337.745C603.74 337.745 624.566 341.269 629.47 336.977C633.196 333.716 616.077 293.159 615.307 289.756C602.196 231.814 597.551 171.861 591.811 112.845C588.521 79.0154 587.838 41.6152 577.977 8.73999C574.506 -2.83304 564.204 3.15212 556.567 7.20258C513.511 30.04 468.284 44.6759 420.533 54.7524C365.091 66.4521 309.332 67.7931 252.988 70.7854C213.767 72.8684 175.424 78.7119 136.387 82.316C116.909 84.1143 97.4078 84.7319 77.8674 84.7319C60.4972 84.7319 40.8029 92.38 23.9587 96.5919C15.8151 98.6282 2 98.6145 2 108.562C2 133.772 5.15568 157.972 8.8072 183.016C13.7259 216.751 19.7866 250.861 19.7866 285.034C19.7866 307.808 20.8022 330.823 19.3474 353.559C18.9751 359.377 17.3752 365.035 17.8103 370.91C18.4208 379.153 90.6353 368.354 95.3245 367.835C126.798 364.352 158.185 366.448 189.747 364.98C227.765 363.211 265.722 363.478 303.493 358.171C348.084 351.906 389.774 343.675 435.026 343.675C467.525 343.675 500.024 343.675 532.522 343.675C537.696 343.675 574.823 344.794 575.122 337.306C578.91 242.603 558.257 148.665 553.383 54.423C552.547 38.2443 485.908 63.3271 477.626 65.4045C432.238 76.7892 385.339 86.9988 338.627 90.4423C285.912 94.3283 232.688 92.6386 179.866 92.6386C135.898 92.6386 90.0789 89.4772 46.7958 99.0078" stroke="url(#paint0_linear_195_2901)" stroke-width="3" stroke-linecap="round"/>
<defs>
<linearGradient id="paint0_linear_195_2901" x1="316" y1="2" x2="316" y2="374" gradientUnits="userSpaceOnUse">
<stop stop-color="#E6D587"/>
<stop offset="1" stop-color="#CAA14F"/>
</linearGradient>
</defs>
</svg>
