<svg width="712" height="120" viewBox="0 0 712 120" fill="none" xmlns="http://www.w3.org/2000/svg">
<path d="M2 40.1408C46.0842 35.6088 89.3103 23.7459 133.287 17.9244C210.683 7.67874 289.144 3.27401 367.188 2.41481C376.689 2.31021 386.191 2.37258 395.692 2.41481C399.122 2.43005 406.537 1.50748 410.028 3.25317C411.36 3.91941 407.386 4.74859 405.92 5.01371C386.547 8.51732 366.754 10.2467 347.235 12.6428C298.123 18.6714 248.943 25.1007 200.187 33.6017C187.399 35.8313 177.87 39.266 166.988 46.0093C163.272 48.3124 163.006 49.0979 168.162 49.8658C174.771 50.8501 177.678 50.362 185.6 49.4466C222.567 45.1749 259.313 38.0765 295.928 31.5896C334.27 24.7967 372.539 17.6186 410.782 10.2954C430.448 6.52969 404.569 16.5872 400.555 18.6789C360.488 39.5549 321.223 61.3112 279.999 79.9628C257.64 90.0787 247.408 94.2948 226.093 103.101C218.373 106.291 209.38 109.126 202.199 113.749C200.935 114.563 198.419 115.325 198.846 116.767C199.048 117.45 200.071 117.572 200.774 117.689C206.451 118.635 218.361 118.357 222.488 118.276C273.137 117.278 323.72 113.375 374.398 112.239C450.086 110.544 525.761 108.605 601.425 111.988C637.541 113.603 673.617 115.739 709.74 117.102" stroke="#F97A09" stroke-width="3" stroke-linecap="round"/>
</svg>
