<svg width="36" height="31" viewBox="0 0 36 31" fill="none" xmlns="http://www.w3.org/2000/svg">
<path d="M26.0035 6.87294C21.4007 7.64006 17.038 9.89118 13.0256 12.1764C11.315 13.1507 7.29305 14.4514 6.78621 16.6688C5.87471 20.6566 10.9611 22.8165 14.2111 22.4714C23.3163 21.5044 30.6692 13.9264 30.4958 4.56437C30.4511 2.14748 25.7553 2.93467 24.2565 3.06692C18.1011 3.61004 14.4358 9.59911 12.1833 14.8281C11.0579 17.4406 10.8418 20.2872 10.8418 23.0953C10.8418 26.2615 15.5579 25.5886 17.6739 25.1855C21.4699 24.4625 41.2096 14.4454 31.5565 9.30629C22.3467 4.40321 10.1025 5.20642 4.10328 14.4226C2.65764 16.6434 0.528587 20.9373 3.79131 22.7833C5.74348 23.8879 8.44471 23.2599 10.3739 22.6274C16.2418 20.7034 23.5265 17.2657 27.7505 12.6132C29.1951 11.022 31.2376 3.96582 28.4992 2.50538C25.9807 1.16215 20.6293 4.83601 19.0778 6.34259C15.83 9.49623 6.07233 25.5588 14.4606 29.0539C19.0434 30.9634 33.5969 21.4262 27.2202 18.135C25.7592 17.381 14.8465 14.7911 14.7726 17.2303C14.7424 18.2264 14.7726 19.2284 14.7726 20.2252C14.7726 22.2943 19.4252 19.337 20.2009 18.9149C24.485 16.5839 27.6077 12.3994 28.3744 7.55927C29.0656 3.1966 28.0292 3.42081 23.6949 3.53487C19.0394 3.65739 13.9266 4.26997 12.8384 9.39989C12.1183 12.7946 11.5096 15.9411 15.3342 16.4192" stroke="#F97A09" stroke-width="3" stroke-linecap="round"/>
</svg>
